<svg width="2048" height="3072" viewBox="0 0 2048 3072" fill="none" xmlns="http://www.w3.org/2000/svg">
<g clip-path="url(#clip0_71_16)">
<path d="M1894.06 2841.6L2008.27 3004.48V2845.17H1979.07V2841.6H2041.04V2845.17H2011.84V3075.21H2009.24L1864.21 2868.86V3069.05H1893.73V3072.62H1831.44V3069.05H1860.64V2845.17H1831.44V2841.6H1894.06Z" fill="white"/>
<path d="M1814.6 2951.11C1814.6 2967.98 1811.46 2983.88 1805.19 2998.81C1798.92 3013.52 1790.59 3026.39 1780.21 3037.42C1769.82 3048.23 1757.93 3056.78 1744.51 3063.05C1731.1 3069.32 1717.26 3072.46 1702.98 3072.46C1688.92 3072.46 1675.19 3069.43 1661.78 3063.37C1648.36 3057.1 1636.47 3048.56 1626.09 3037.74C1615.7 3026.93 1607.27 3014.16 1600.78 2999.45C1594.5 2984.53 1591.37 2968.41 1591.37 2951.11C1591.37 2933.81 1594.4 2917.8 1600.45 2903.09C1606.73 2888.16 1615.05 2875.29 1625.44 2864.48C1635.82 2853.66 1647.72 2845.23 1661.13 2839.17C1674.54 2832.9 1688.49 2829.76 1702.98 2829.76C1717.48 2829.76 1731.43 2832.9 1744.84 2839.17C1758.25 2845.23 1770.15 2853.66 1780.53 2864.48C1790.91 2875.29 1799.13 2888.16 1805.19 2903.09C1811.46 2917.8 1814.6 2933.81 1814.6 2951.11ZM1702.98 3068.89C1715.31 3068.89 1725.59 3066.84 1733.81 3062.73C1742.03 3058.4 1748.62 3051.91 1753.6 3043.26C1756.41 3038.5 1758.79 3032.55 1760.74 3025.41C1762.68 3018.27 1764.2 3010.59 1765.28 3002.38C1766.36 2994.16 1767.12 2985.61 1767.55 2976.74C1768.2 2967.87 1768.52 2959.33 1768.52 2951.11C1768.52 2942.67 1768.2 2933.91 1767.55 2924.83C1767.12 2915.74 1766.25 2906.98 1764.96 2898.55C1763.66 2889.89 1761.93 2881.89 1759.76 2874.54C1757.6 2867.18 1754.9 2861.02 1751.65 2856.04C1746.68 2848.04 1740.19 2842.31 1732.18 2838.85C1724.4 2835.17 1714.56 2833.33 1702.66 2833.33C1692.28 2833.33 1683.41 2834.84 1676.05 2837.87C1668.7 2840.68 1662.53 2845.12 1657.56 2851.18C1653.66 2855.72 1650.42 2861.67 1647.82 2869.02C1645.44 2876.38 1643.39 2884.49 1641.66 2893.36C1640.15 2902.22 1639.06 2911.63 1638.41 2921.58C1637.77 2931.53 1637.44 2941.38 1637.44 2951.11C1637.44 2960.41 1637.66 2969.82 1638.09 2979.34C1638.74 2988.64 1639.71 2997.62 1641.01 3006.27C1642.52 3014.92 1644.36 3022.82 1646.53 3029.95C1648.91 3037.09 1651.72 3042.93 1654.96 3047.48C1659.94 3054.61 1666.32 3060.02 1674.11 3063.7C1681.89 3067.16 1691.52 3068.89 1702.98 3068.89Z" fill="white"/>
<path d="M1569.89 2841.6V2845.17H1540.69V3069.05H1569.89V3072.62H1471.25V3069.05H1500.45V2845.17H1471.25V2841.6H1569.89Z" fill="white"/>
<path d="M1459.58 2841.6V2919.47H1456.98C1452.66 2894.81 1443.9 2876.32 1430.7 2863.99C1417.72 2851.44 1401.72 2845.17 1382.68 2845.17H1379.11V3069.05H1408.31V3072.62H1309.68V3069.05H1338.88V2845.17H1334.99C1315.3 2845.17 1298.97 2851.77 1285.99 2864.96C1273.01 2877.94 1264.68 2896.11 1261.01 2919.47H1258.41V2841.6H1459.58Z" fill="white"/>
<path d="M1227.91 2844.04C1230.29 2844.04 1232.13 2843.6 1233.43 2842.74C1234.94 2841.87 1236.35 2840.25 1237.65 2837.87H1240.24V2905.36H1237.65C1232.02 2881.13 1223.59 2863.07 1212.34 2851.18C1201.09 2839.28 1187.36 2833.33 1171.13 2833.33C1150.8 2833.33 1135.66 2840.79 1125.71 2855.72C1115.76 2871.08 1110.78 2903.74 1110.78 2953.71C1110.78 2969.06 1111.11 2981.93 1111.76 2992.32C1112.41 3002.48 1113.27 3011.14 1114.35 3018.27C1115.65 3025.2 1117.16 3030.93 1118.9 3035.47C1120.63 3039.8 1122.46 3043.69 1124.41 3047.15C1132.63 3061.64 1148.1 3068.89 1170.81 3068.89C1208.45 3068.89 1232.67 3046.07 1243.49 3000.43H1246.08V3068.89H1243.49C1241.76 3066.73 1240.14 3065.21 1238.62 3064.35C1237.11 3063.48 1234.51 3063.05 1230.84 3063.05C1228.02 3063.05 1224.67 3063.59 1220.78 3064.67C1217.1 3065.54 1212.88 3066.51 1208.12 3067.59C1203.36 3068.89 1197.96 3069.97 1191.9 3070.84C1186.06 3071.92 1179.57 3072.46 1172.43 3072.46C1156.64 3072.46 1142.15 3069.65 1128.95 3064.02C1115.76 3058.18 1104.4 3050.18 1094.88 3040.01C1085.37 3029.85 1077.9 3017.62 1072.5 3003.35C1067.31 2989.07 1064.71 2973.28 1064.71 2955.98C1064.71 2937.16 1067.85 2919.96 1074.12 2904.39C1080.61 2888.81 1088.94 2875.51 1099.1 2864.48C1109.27 2853.45 1120.63 2844.9 1133.17 2838.85C1145.72 2832.79 1158.26 2829.76 1170.81 2829.76C1176.87 2829.76 1182.6 2830.52 1188.01 2832.03C1193.63 2833.55 1198.82 2835.17 1203.58 2836.9C1208.56 2838.63 1212.99 2840.25 1216.88 2841.77C1220.99 2843.28 1224.67 2844.04 1227.91 2844.04Z" fill="white"/>
<path d="M1024.29 2841.6V2897.41H1021.7C1018.23 2887.46 1014.23 2879.13 1009.69 2872.42C1005.15 2865.72 1000.06 2860.31 994.441 2856.2C988.817 2852.09 982.652 2849.28 975.946 2847.77C969.457 2846.04 962.427 2845.17 954.856 2845.17H921.112V2951.59H928.574C937.01 2951.59 944.149 2950.51 949.989 2948.35C956.046 2946.19 961.021 2943.16 964.914 2939.26C968.808 2935.15 971.836 2930.4 973.999 2924.99C976.162 2919.36 977.568 2913.2 978.217 2906.49H980.813V3001.24H978.217C976.703 2986.53 972.053 2975.17 964.265 2967.17C956.478 2959.16 944.257 2955.16 927.601 2955.16H921.112V3069.05H970.755C988.276 3069.05 1002.55 3064.18 1013.58 3054.45C1024.62 3044.72 1033.59 3029.14 1040.51 3007.73H1043.11V3072.62H851.677V3069.05H880.878V2845.17H851.677V2841.6H1024.29Z" fill="white"/>
<path d="M747.202 2841.6V2845.17H717.676V3069.05H741.362C751.961 3069.05 762.127 3067.43 771.861 3064.18C781.811 3060.94 790.788 3056.29 798.792 3050.23C806.795 3044.17 813.501 3036.82 818.908 3028.17C824.532 3019.52 828.426 3009.78 830.589 2998.97H833.185V3072.62H648.24V3069.05H677.442V2845.17H648.24V2841.6H747.202Z" fill="white"/>
<path d="M543.766 2840.6V2844.17H514.239V3068.05H537.925C548.524 3068.05 558.691 3066.43 568.425 3063.18C578.375 3059.94 587.352 3055.29 595.355 3049.23C603.359 3043.17 610.064 3035.82 615.472 3027.17C621.096 3018.52 624.99 3008.78 627.153 2997.97H629.748V3071.62H444.804V3068.05H474.006V2844.17H444.804V2840.6H543.766Z" fill="white"/>
<path d="M426.667 2950.11C426.667 2966.98 423.531 2982.88 417.258 2997.81C410.985 3012.52 402.657 3025.39 392.274 3036.42C381.891 3047.23 369.994 3055.78 356.583 3062.05C343.172 3068.32 329.328 3071.46 315.052 3071.46C300.991 3071.46 287.256 3068.43 273.845 3062.37C260.433 3056.1 248.536 3047.56 238.154 3036.74C227.771 3025.93 219.335 3013.16 212.845 2998.45C206.573 2983.53 203.436 2967.41 203.436 2950.11C203.436 2932.81 206.464 2916.8 212.521 2902.09C218.794 2887.16 227.122 2874.29 237.505 2863.48C247.888 2852.66 259.785 2844.23 273.196 2838.17C286.607 2831.9 300.559 2828.76 315.052 2828.76C329.544 2828.76 343.496 2831.9 356.907 2838.17C370.319 2844.23 382.216 2852.66 392.598 2863.48C402.981 2874.29 411.201 2887.16 417.258 2902.09C423.531 2916.8 426.667 2932.81 426.667 2950.11ZM315.052 3067.89C327.381 3067.89 337.656 3065.84 345.876 3061.73C354.095 3057.4 360.693 3050.91 365.668 3042.26C368.48 3037.5 370.859 3031.55 372.806 3024.41C374.753 3017.27 376.267 3009.59 377.349 3001.38C378.43 2993.16 379.187 2984.61 379.62 2975.74C380.269 2966.87 380.593 2958.33 380.593 2950.11C380.593 2941.67 380.269 2932.91 379.62 2923.83C379.187 2914.74 378.322 2905.98 377.024 2897.55C375.726 2888.89 373.996 2880.89 371.833 2873.54C369.67 2866.18 366.966 2860.02 363.721 2855.04C358.746 2847.04 352.257 2841.31 344.253 2837.85C336.466 2834.17 326.624 2832.33 314.727 2832.33C304.344 2832.33 295.476 2833.84 288.121 2836.87C280.767 2839.68 274.602 2844.12 269.627 2850.18C265.733 2854.72 262.488 2860.67 259.893 2868.02C257.513 2875.38 255.458 2883.49 253.728 2892.36C252.214 2901.22 251.132 2910.63 250.483 2920.58C249.834 2930.53 249.51 2940.38 249.51 2950.11C249.51 2959.41 249.726 2968.82 250.159 2978.34C250.808 2987.64 251.781 2996.62 253.079 3005.27C254.593 3013.92 256.432 3021.82 258.595 3028.95C260.974 3036.09 263.786 3041.93 267.031 3046.48C272.006 3053.61 278.387 3059.02 286.174 3062.7C293.961 3066.16 303.587 3067.89 315.052 3067.89Z" fill="white"/>
<path d="M163.205 2843.04C165.585 2843.04 167.423 2842.6 168.721 2841.74C170.235 2840.87 171.641 2839.25 172.939 2836.87H175.535V2904.36H172.939C167.315 2880.13 158.879 2862.07 147.631 2850.18C136.383 2838.28 122.647 2832.33 106.424 2832.33C86.091 2832.33 70.9494 2839.79 60.9992 2854.72C51.0489 2870.08 46.0738 2902.74 46.0738 2952.71C46.0738 2968.06 46.3983 2980.93 47.0472 2991.32C47.6962 3001.48 48.5614 3010.14 49.6429 3017.27C50.9408 3024.2 52.455 3029.93 54.1854 3034.47C55.9159 3038.8 57.7545 3042.69 59.7013 3046.15C67.9211 3060.64 83.3872 3067.89 106.1 3067.89C143.737 3067.89 167.964 3045.07 178.779 2999.43H181.375V3067.89H178.779C177.049 3065.73 175.427 3064.21 173.913 3063.35C172.398 3062.48 169.803 3062.05 166.125 3062.05C163.313 3062.05 159.961 3062.59 156.067 3063.67C152.39 3064.54 148.172 3065.51 143.413 3066.59C138.654 3067.89 133.246 3068.97 127.19 3069.84C121.349 3070.92 114.86 3071.46 107.722 3071.46C91.9314 3071.46 77.4387 3068.65 64.2438 3063.02C51.0489 3057.18 39.6927 3049.18 30.1751 3039.01C20.6575 3028.85 13.1949 3016.62 7.78713 3002.35C2.59571 2988.07 0 2972.28 0 2954.98C0 2936.16 3.13648 2918.96 9.40945 2903.39C15.8987 2887.81 24.2266 2874.51 34.3932 2863.48C44.5597 2852.45 55.9159 2843.9 68.4618 2837.85C81.0078 2831.79 93.5537 2828.76 106.1 2828.76C112.156 2828.76 117.888 2829.52 123.296 2831.03C128.92 2832.55 134.112 2834.17 138.87 2835.9C143.846 2837.63 148.28 2839.25 152.173 2840.77C156.283 2842.28 159.961 2843.04 163.205 2843.04Z" fill="white"/>
<path d="M1720.03 2680V2684.09H1679.15L1760.91 2893.33L1822.61 2737.23L1801.42 2684.09H1775.41V2680H1891.73V2684.09H1851.23L1932.24 2893.33L2015.87 2684.09H1983.53V2680H2047.83V2684.09H2020.7L1912.55 2954.65H1909.2L1825.21 2743.18L1740.85 2954.65H1737.5L1629.35 2684.09H1603.34V2680H1720.03Z" fill="white" fill-opacity="0.91"/>
<path d="M1604.12 2680L1450.26 2940.53H1502.66C1528.43 2940.53 1550.11 2933.09 1567.7 2918.23C1585.29 2903.11 1597.31 2879.08 1603.75 2846.13H1606.72V2944.61H1397.49L1550.98 2684.09H1498.2C1478.88 2684.09 1462.28 2690.65 1448.4 2703.79C1434.53 2716.92 1424.74 2736.49 1419.04 2762.51H1416.07V2680H1604.12Z" fill="white" fill-opacity="0.91"/>
</g>
<defs>
<clipPath id="clip0_71_16">
<rect width="2048" height="3072" fill="white"/>
</clipPath>
</defs>
</svg>
