<svg width="3000" height="4646" viewBox="0 0 3000 4646" fill="none" xmlns="http://www.w3.org/2000/svg">
<path d="M774.066 1900.23C773.135 1874.63 768.249 1853.23 759.408 1836.01C751.032 1818.33 739.631 1804.14 725.206 1793.43C711.246 1782.27 694.494 1774.36 674.95 1769.7C655.406 1765.05 634.466 1762.72 612.13 1762.72C594.912 1762.72 576.997 1764.58 558.384 1768.31C539.77 1771.56 522.786 1777.61 507.43 1786.45C492.539 1795.3 480.208 1807.16 470.436 1822.05C460.664 1836.48 455.778 1854.86 455.778 1877.19C455.778 1899.53 460.664 1917.45 470.436 1930.94C480.673 1944.43 493.702 1955.37 509.524 1963.75C525.81 1972.12 544.191 1978.64 564.666 1983.29C585.14 1987.94 606.08 1992.83 627.486 1997.95C650.752 2004 672.623 2009.81 693.098 2015.4C714.038 2020.98 732.186 2028.43 747.542 2037.73C762.898 2047.04 774.996 2059.37 783.838 2074.73C793.144 2090.08 797.798 2110.79 797.798 2136.85C797.798 2160.58 792.679 2180.82 782.442 2197.58C772.204 2214.33 758.71 2228.29 741.958 2239.46C725.206 2250.16 706.36 2257.84 685.42 2262.49C664.48 2267.61 643.307 2270.17 621.902 2270.17C593.516 2270.17 567.225 2266.91 543.028 2260.4C519.296 2253.88 498.588 2243.64 480.906 2229.68C463.688 2215.26 450.194 2196.88 440.422 2174.54C431.115 2152.21 426.694 2125.22 427.16 2093.57H441.12C441.12 2123.36 445.54 2148.72 454.382 2169.66C463.223 2190.13 475.554 2206.88 491.376 2219.91C507.662 2232.94 526.741 2242.48 548.612 2248.53C570.948 2254.11 595.378 2256.91 621.902 2256.91C641.446 2256.91 660.757 2254.81 679.836 2250.62C699.38 2245.97 716.83 2238.76 732.186 2228.99C747.542 2219.21 759.873 2206.65 769.18 2191.29C778.952 2175.94 783.838 2157.56 783.838 2136.15C783.838 2111.02 778.254 2091.25 767.086 2076.82C756.383 2061.93 742.423 2050.3 725.206 2041.92C708.454 2033.08 689.608 2026.57 668.668 2022.38C648.193 2017.72 628.416 2013.07 609.338 2008.42C589.328 2003.76 569.319 1998.88 549.31 1993.76C529.3 1988.64 511.152 1981.66 494.866 1972.82C479.044 1963.51 466.248 1951.41 456.476 1936.52C446.704 1921.17 441.818 1901.39 441.818 1877.19C441.818 1852.53 446.936 1832.06 457.174 1815.77C467.411 1799.02 480.673 1785.76 496.96 1775.98C513.246 1766.21 531.394 1759.23 551.404 1755.04C571.878 1750.86 592.12 1748.76 612.13 1748.76C636.792 1748.76 659.361 1751.55 679.836 1757.14C700.776 1762.26 718.924 1770.87 734.28 1782.96C750.101 1794.6 762.665 1810.19 771.972 1829.73C781.278 1848.81 786.63 1872.31 788.026 1900.23H774.066ZM1122.12 2094.97L1055.81 2259H1040.46L1242.18 1760.63H1260.33L1457.16 2259H1441.81L1376.19 2094.97H1122.12ZM1370.61 2081.01L1251.95 1774.59H1250.55L1127.71 2081.01H1370.61ZM2010.34 2245.04V2259H1705.31V1760.63H1719.27V2245.04H2010.34ZM2273.32 2245.04H2593.01V2259H2259.36V1760.63H2590.21V1774.59H2273.32V1992.36H2571.37V2006.32H2273.32V2245.04Z" fill="#23F444"/>
<path d="M508.451 2390.82C534.803 2390.82 551.273 2410.46 551.273 2436.81C551.273 2462.19 535.047 2482.07 508.451 2482.07C481.855 2482.07 465.629 2462.19 465.629 2436.81C465.629 2410.95 481.733 2390.82 508.451 2390.82ZM484.783 2436.81C484.783 2453.04 492.469 2465.97 508.451 2465.97C524.677 2465.97 532.119 2452.67 532.119 2436.81C532.119 2420.1 524.677 2406.92 508.329 2406.92C492.347 2406.92 484.783 2419.98 484.783 2436.81ZM597.366 2392.89H616.398L652.754 2451.33H652.998V2392.89H670.932V2480H651.778L615.544 2421.68H615.3V2480H597.366V2392.89ZM720.794 2392.89H739.948V2463.9H782.404V2480H720.794V2392.89ZM826.112 2392.89H845.266V2480H826.112V2392.89ZM895.093 2392.89H914.125L950.481 2451.33H950.725V2392.89H968.659V2480H949.505L913.271 2421.68H913.027V2480H895.093V2392.89ZM1018.52 2392.89H1083.67V2409H1037.67V2427.66H1079.89V2442.55H1037.67V2463.9H1084.64V2480H1018.52V2392.89ZM1221.37 2392.89H1241.02L1273.59 2480H1253.7L1247.12 2460.6H1214.54L1207.71 2480H1188.31L1221.37 2392.89ZM1231.13 2414.36H1230.89L1219.54 2446.33H1242.11L1231.13 2414.36ZM1314.1 2392.89H1333.13L1369.49 2451.33H1369.73V2392.89H1387.67V2480H1368.51L1332.28 2421.68H1332.04V2480H1314.1V2392.89ZM1437.53 2392.89H1474.86C1499.02 2392.89 1514.63 2408.51 1514.63 2435.96C1514.63 2463.41 1499.75 2480 1475.35 2480H1437.53V2392.89ZM1456.68 2463.9H1473.64C1485.6 2463.9 1495.48 2456.45 1495.48 2437.67C1495.48 2416.93 1486.33 2409 1470.35 2409H1456.68V2463.9ZM1627.91 2392.89H1647.07V2480H1627.91V2392.89ZM1696.89 2392.89H1715.93L1752.28 2451.33H1752.53V2392.89H1770.46V2480H1751.31L1715.07 2421.68H1714.83V2480H1696.89V2392.89ZM1917.29 2390.82C1935.95 2390.82 1952.18 2399.11 1952.18 2418.88H1933.64C1933.03 2410.09 1927.9 2405.7 1916.56 2405.7C1909.48 2405.7 1903.26 2408.75 1903.26 2415.58C1903.26 2421.93 1906.92 2423.15 1926.44 2428.03C1939.37 2431.32 1955.11 2435.71 1955.11 2454.14C1955.11 2470.61 1942.05 2482.07 1918.87 2482.07C1900.45 2482.07 1881.79 2473.29 1881.79 2451.7V2451.09H1900.33C1900.33 2463.41 1910.46 2467.19 1919.48 2467.19C1928.27 2467.19 1936.56 2464.26 1936.56 2456.33C1936.56 2450.84 1932.29 2447.43 1921.56 2444.74C1915.09 2443.03 1909.48 2441.81 1903.87 2439.98C1890.69 2435.59 1884.71 2428.15 1884.71 2417.05C1884.71 2399.48 1901.31 2390.82 1917.29 2390.82ZM1992.67 2392.89H2064.04V2409H2037.93V2480H2018.78V2409H1992.67V2392.89ZM2146.13 2390.82C2172.48 2390.82 2188.95 2410.46 2188.95 2436.81C2188.95 2462.19 2172.72 2482.07 2146.13 2482.07C2119.53 2482.07 2103.3 2462.19 2103.3 2436.81C2103.3 2410.95 2119.41 2390.82 2146.13 2390.82ZM2122.46 2436.81C2122.46 2453.04 2130.14 2465.97 2146.13 2465.97C2162.35 2465.97 2169.79 2452.67 2169.79 2436.81C2169.79 2420.1 2162.35 2406.92 2146 2406.92C2130.02 2406.92 2122.46 2419.98 2122.46 2436.81ZM2235.04 2392.89H2282.01C2297.38 2392.89 2307.51 2403.51 2307.51 2416.93C2307.51 2427.91 2302.87 2435.1 2293.72 2438.76V2439.01C2305.92 2442.42 2306.29 2455.84 2306.66 2464.02C2307.02 2472.31 2307.88 2476.95 2310.07 2480H2290.92C2289.45 2476.34 2288.97 2471.09 2288.48 2464.87C2287.5 2452.67 2285.55 2445.96 2273.47 2445.96H2254.2V2480H2235.04V2392.89ZM2254.2 2432.3H2275.3C2283.35 2432.3 2288.36 2429 2288.36 2419.85C2288.36 2411.19 2283.6 2407.78 2275.18 2407.78H2254.2V2432.3ZM2356.09 2392.89H2421.23V2409H2375.24V2427.66H2417.45V2442.55H2375.24V2463.9H2422.21V2480H2356.09V2392.89ZM2498.21 2390.82C2516.87 2390.82 2533.1 2399.11 2533.1 2418.88H2514.56C2513.95 2410.09 2508.82 2405.7 2497.48 2405.7C2490.4 2405.7 2484.18 2408.75 2484.18 2415.58C2484.18 2421.93 2487.84 2423.15 2507.36 2428.03C2520.29 2431.32 2536.03 2435.71 2536.03 2454.14C2536.03 2470.61 2522.97 2482.07 2499.79 2482.07C2481.37 2482.07 2462.71 2473.29 2462.71 2451.7V2451.09H2481.25C2481.25 2463.41 2491.38 2467.19 2500.4 2467.19C2509.19 2467.19 2517.48 2464.26 2517.48 2456.33C2517.48 2450.84 2513.21 2447.43 2502.48 2444.74C2496.01 2443.03 2490.4 2441.81 2484.79 2439.98C2471.61 2435.59 2465.63 2428.15 2465.63 2417.05C2465.63 2399.48 2482.23 2390.82 2498.21 2390.82Z" fill="white"/>
</svg>
