<svg width="3000" height="4646" viewBox="0 0 3000 4646" fill="none" xmlns="http://www.w3.org/2000/svg">
<path d="M159.329 2001.5C159.129 1996.9 158.129 1992.9 156.329 1989.5C154.629 1986.1 152.279 1983.25 149.279 1980.95C146.279 1978.65 142.679 1976.95 138.479 1975.85C134.379 1974.65 129.879 1974.05 124.979 1974.05C121.979 1974.05 118.729 1974.4 115.229 1975.1C111.829 1975.8 108.629 1977.05 105.629 1978.85C102.729 1980.55 100.329 1982.9 98.4285 1985.9C96.5285 1988.8 95.5785 1992.45 95.5785 1996.85C95.5785 2001.15 96.6285 2004.65 98.7285 2007.35C100.829 2010.05 103.579 2012.25 106.979 2013.95C110.379 2015.55 114.279 2016.85 118.679 2017.85C123.079 2018.85 127.529 2019.8 132.029 2020.7C136.629 2021.6 141.079 2022.7 145.379 2024C149.779 2025.2 153.679 2026.9 157.079 2029.1C160.579 2031.2 163.379 2034 165.479 2037.5C167.579 2040.9 168.629 2045.2 168.629 2050.4C168.629 2056 167.429 2060.7 165.029 2064.5C162.629 2068.3 159.579 2071.4 155.879 2073.8C152.279 2076.2 148.229 2077.9 143.729 2078.9C139.329 2080 135.079 2080.55 130.979 2080.55C124.679 2080.55 118.779 2079.85 113.279 2078.45C107.779 2077.15 102.979 2075 98.8785 2072C94.7785 2068.9 91.5285 2064.95 89.1285 2060.15C86.8285 2055.35 85.7285 2049.5 85.8285 2042.6H92.4285C92.1285 2048.5 92.9785 2053.5 94.9785 2057.6C96.9785 2061.6 99.7285 2064.9 103.229 2067.5C106.829 2070.1 111.029 2072 115.829 2073.2C120.629 2074.3 125.679 2074.85 130.979 2074.85C134.179 2074.85 137.579 2074.45 141.179 2073.65C144.879 2072.85 148.229 2071.5 151.229 2069.6C154.329 2067.7 156.879 2065.2 158.879 2062.1C160.979 2059 162.029 2055.1 162.029 2050.4C162.029 2045.9 160.979 2042.25 158.879 2039.45C156.779 2036.55 153.979 2034.25 150.479 2032.55C147.079 2030.75 143.179 2029.35 138.779 2028.35C134.479 2027.25 130.029 2026.25 125.429 2025.35C120.929 2024.45 116.479 2023.4 112.079 2022.2C107.679 2021 103.779 2019.4 100.379 2017.4C96.9785 2015.3 94.2285 2012.65 92.1285 2009.45C90.0285 2006.15 88.9785 2001.95 88.9785 1996.85C88.9785 1991.75 90.0285 1987.4 92.1285 1983.8C94.3285 1980.1 97.1285 1977.15 100.529 1974.95C104.029 1972.65 107.929 1971 112.229 1970C116.529 1968.9 120.779 1968.35 124.979 1968.35C130.579 1968.35 135.779 1969 140.579 1970.3C145.479 1971.5 149.729 1973.45 153.329 1976.15C157.029 1978.75 159.979 1982.15 162.179 1986.35C164.379 1990.55 165.629 1995.6 165.929 2001.5H159.329ZM258.711 1970.9H265.911L308.211 2078H301.161L287.661 2043.65H236.361L222.711 2078H215.661L258.711 1970.9ZM285.561 2037.95L262.611 1977.35H262.311L238.461 2037.95H285.561ZM358.827 1970.9H365.427V2072.3H426.177V2078H358.827V1970.9ZM476.827 1970.9H548.827V1976.6H483.427V2019.5H544.927V2025.2H483.427V2072.3H549.577V2078H476.827V1970.9ZM688.511 1970.9H755.711V1976.6H695.111V2019.5H749.711V2025.2H695.111V2078H688.511V1970.9ZM808.561 1970.9H853.261C857.961 1970.9 862.361 1971.4 866.461 1972.4C870.561 1973.3 874.161 1974.85 877.261 1977.05C880.361 1979.15 882.761 1981.95 884.461 1985.45C886.261 1988.95 887.161 1993.3 887.161 1998.5C887.161 2005.7 885.111 2011.8 881.011 2016.8C877.011 2021.7 871.411 2024.75 864.211 2025.95V2026.25C869.111 2026.85 872.961 2028.15 875.761 2030.15C878.661 2032.15 880.811 2034.6 882.211 2037.5C883.611 2040.4 884.511 2043.6 884.911 2047.1C885.311 2050.6 885.511 2054.1 885.511 2057.6C885.511 2059.7 885.511 2061.75 885.511 2063.75C885.511 2065.75 885.611 2067.65 885.811 2069.45C886.011 2071.15 886.311 2072.75 886.711 2074.25C887.211 2075.75 887.861 2077 888.661 2078H881.311C879.911 2075.5 879.111 2072.6 878.911 2069.3C878.811 2065.9 878.761 2062.4 878.761 2058.8C878.761 2055.2 878.611 2051.65 878.311 2048.15C878.011 2044.55 877.061 2041.35 875.461 2038.55C873.861 2035.75 871.311 2033.5 867.811 2031.8C864.411 2030.1 859.561 2029.25 853.261 2029.25H815.161V2078H808.561V1970.9ZM853.261 2023.55C857.161 2023.55 860.761 2023.1 864.061 2022.2C867.461 2021.2 870.361 2019.7 872.761 2017.7C875.161 2015.7 877.061 2013.15 878.461 2010.05C879.861 2006.95 880.561 2003.25 880.561 1998.95C880.561 1994.95 879.811 1991.55 878.311 1988.75C876.811 1985.85 874.811 1983.5 872.311 1981.7C869.811 1979.9 866.911 1978.6 863.611 1977.8C860.311 1977 856.861 1976.6 853.261 1976.6H815.161V2023.55H853.261ZM1043.09 2024.45C1043.09 2032.25 1041.94 2039.6 1039.64 2046.5C1037.34 2053.3 1033.99 2059.25 1029.59 2064.35C1025.29 2069.35 1019.99 2073.3 1013.69 2076.2C1007.39 2079.1 1000.24 2080.55 992.244 2080.55C984.244 2080.55 977.044 2079.1 970.644 2076.2C964.344 2073.3 958.994 2069.35 954.594 2064.35C950.294 2059.25 946.994 2053.3 944.694 2046.5C942.394 2039.6 941.244 2032.25 941.244 2024.45C941.244 2016.65 942.394 2009.35 944.694 2002.55C946.994 1995.65 950.294 1989.7 954.594 1984.7C958.994 1979.6 964.344 1975.6 970.644 1972.7C977.044 1969.8 984.244 1968.35 992.244 1968.35C1000.24 1968.35 1007.39 1969.8 1013.69 1972.7C1019.99 1975.6 1025.29 1979.6 1029.59 1984.7C1033.99 1989.7 1037.34 1995.65 1039.64 2002.55C1041.94 2009.35 1043.09 2016.65 1043.09 2024.45ZM947.844 2024.45C947.844 2031.35 948.844 2037.85 950.844 2043.95C952.844 2050.05 955.744 2055.4 959.544 2060C963.344 2064.5 967.994 2068.1 973.494 2070.8C978.994 2073.5 985.244 2074.85 992.244 2074.85C999.244 2074.85 1005.44 2073.5 1010.84 2070.8C1016.34 2068.1 1020.99 2064.5 1024.79 2060C1028.59 2055.4 1031.49 2050.05 1033.49 2043.95C1035.49 2037.85 1036.49 2031.35 1036.49 2024.45C1036.49 2017.55 1035.49 2011.05 1033.49 2004.95C1031.49 1998.85 1028.59 1993.55 1024.79 1989.05C1020.99 1984.45 1016.34 1980.8 1010.84 1978.1C1005.44 1975.4 999.244 1974.05 992.244 1974.05C985.244 1974.05 978.994 1975.4 973.494 1978.1C967.994 1980.8 963.344 1984.45 959.544 1989.05C955.744 1993.55 952.844 1998.85 950.844 2004.95C948.844 2011.05 947.844 2017.55 947.844 2024.45ZM1100.23 1970.9H1109.68L1151.53 2070.65H1151.83L1193.23 1970.9H1202.68V2078H1196.08V1979H1195.78L1154.98 2078H1148.38L1107.13 1979H1106.83V2078H1100.23V1970.9ZM1346.71 2078C1347.01 2073.2 1348.11 2068.9 1350.01 2065.1C1351.91 2061.2 1354.31 2057.7 1357.21 2054.6C1360.21 2051.4 1363.51 2048.45 1367.11 2045.75C1370.81 2043.05 1374.56 2040.45 1378.36 2037.95C1382.06 2035.45 1385.71 2032.95 1389.31 2030.45C1392.91 2027.85 1396.11 2025.1 1398.91 2022.2C1401.81 2019.3 1404.11 2016.15 1405.81 2012.75C1407.51 2009.25 1408.36 2005.3 1408.36 2000.9C1408.36 1997.4 1407.66 1994.25 1406.26 1991.45C1404.86 1988.55 1402.96 1986.1 1400.56 1984.1C1398.26 1982 1395.56 1980.4 1392.46 1979.3C1389.46 1978.2 1386.26 1977.65 1382.86 1977.65C1378.16 1977.65 1374.06 1978.5 1370.56 1980.2C1367.06 1981.8 1364.16 1984.05 1361.86 1986.95C1359.56 1989.75 1357.81 1993.1 1356.61 1997C1355.51 2000.8 1354.96 2004.95 1354.96 2009.45H1349.26C1349.86 1996.85 1352.86 1987.6 1358.26 1981.7C1363.76 1975.7 1371.66 1972.7 1381.96 1972.7C1386.36 1972.7 1390.51 1973.3 1394.41 1974.5C1398.31 1975.6 1401.71 1977.35 1404.61 1979.75C1407.51 1982.05 1409.81 1985 1411.51 1988.6C1413.21 1992.1 1414.06 1996.25 1414.06 2001.05C1414.06 2007.15 1412.61 2012.55 1409.71 2017.25C1406.91 2021.85 1403.31 2026.05 1398.91 2029.85C1394.61 2033.65 1389.91 2037.2 1384.81 2040.5C1379.81 2043.8 1375.06 2047.1 1370.56 2050.4C1366.16 2053.6 1362.36 2057 1359.16 2060.6C1356.06 2064.1 1354.31 2068 1353.91 2072.3H1415.71V2078H1346.71ZM1507.86 2079.8C1500.36 2079.8 1494.21 2078.2 1489.41 2075C1484.61 2071.7 1480.76 2067.5 1477.86 2062.4C1475.06 2057.2 1473.11 2051.45 1472.01 2045.15C1470.91 2038.75 1470.36 2032.45 1470.36 2026.25C1470.36 2020.05 1470.91 2013.8 1472.01 2007.5C1473.11 2001.1 1475.06 1995.35 1477.86 1990.25C1480.76 1985.05 1484.61 1980.85 1489.41 1977.65C1494.21 1974.35 1500.36 1972.7 1507.86 1972.7C1515.36 1972.7 1521.51 1974.35 1526.31 1977.65C1531.11 1980.85 1534.91 1985.05 1537.71 1990.25C1540.61 1995.35 1542.61 2001.1 1543.71 2007.5C1544.81 2013.8 1545.36 2020.05 1545.36 2026.25C1545.36 2032.45 1544.81 2038.75 1543.71 2045.15C1542.61 2051.45 1540.61 2057.2 1537.71 2062.4C1534.91 2067.5 1531.11 2071.7 1526.31 2075C1521.51 2078.2 1515.36 2079.8 1507.86 2079.8ZM1507.86 2074.85C1514.26 2074.85 1519.51 2073.3 1523.61 2070.2C1527.81 2067.1 1531.06 2063.15 1533.36 2058.35C1535.76 2053.55 1537.41 2048.3 1538.31 2042.6C1539.21 2036.9 1539.66 2031.45 1539.66 2026.25C1539.66 2021.05 1539.21 2015.6 1538.31 2009.9C1537.41 2004.2 1535.76 1998.95 1533.36 1994.15C1531.06 1989.35 1527.81 1985.4 1523.61 1982.3C1519.51 1979.2 1514.26 1977.65 1507.86 1977.65C1501.36 1977.65 1496.06 1979.2 1491.96 1982.3C1487.86 1985.4 1484.61 1989.35 1482.21 1994.15C1479.91 1998.95 1478.31 2004.2 1477.41 2009.9C1476.51 2015.6 1476.06 2021.05 1476.06 2026.25C1476.06 2031.45 1476.51 2036.9 1477.41 2042.6C1478.31 2048.3 1479.91 2053.55 1482.21 2058.35C1484.61 2063.15 1487.86 2067.1 1491.96 2070.2C1496.06 2073.3 1501.36 2074.85 1507.86 2074.85ZM1682.96 1970.9H1688.96L1619.21 2081.6H1613.21L1682.96 1970.9ZM1623.41 2026.1C1619.61 2026.1 1616.16 2025.4 1613.06 2024C1610.06 2022.6 1607.46 2020.7 1605.26 2018.3C1603.06 2015.9 1601.36 2013.1 1600.16 2009.9C1599.06 2006.6 1598.51 2003.15 1598.51 1999.55C1598.51 1995.85 1599.06 1992.4 1600.16 1989.2C1601.36 1985.9 1603.01 1983.05 1605.11 1980.65C1607.31 1978.15 1609.96 1976.2 1613.06 1974.8C1616.16 1973.4 1619.66 1972.7 1623.56 1972.7C1627.46 1972.7 1630.96 1973.4 1634.06 1974.8C1637.16 1976.1 1639.76 1977.95 1641.86 1980.35C1643.96 1982.75 1645.56 1985.6 1646.66 1988.9C1647.76 1992.2 1648.31 1995.75 1648.31 1999.55C1648.31 2003.15 1647.71 2006.55 1646.51 2009.75C1645.41 2012.95 1643.76 2015.75 1641.56 2018.15C1639.36 2020.55 1636.71 2022.5 1633.61 2024C1630.61 2025.4 1627.21 2026.1 1623.41 2026.1ZM1623.26 2021.15C1626.26 2021.15 1628.96 2020.55 1631.36 2019.35C1633.76 2018.15 1635.76 2016.55 1637.36 2014.55C1639.06 2012.45 1640.36 2010.1 1641.26 2007.5C1642.16 2004.9 1642.61 2002.25 1642.61 1999.55C1642.61 1996.65 1642.21 1993.9 1641.41 1991.3C1640.61 1988.6 1639.36 1986.25 1637.66 1984.25C1636.06 1982.25 1634.06 1980.65 1631.66 1979.45C1629.26 1978.25 1626.51 1977.65 1623.41 1977.65C1620.31 1977.65 1617.56 1978.25 1615.16 1979.45C1612.76 1980.65 1610.76 1982.25 1609.16 1984.25C1607.56 1986.25 1606.31 1988.6 1605.41 1991.3C1604.61 1993.9 1604.21 1996.65 1604.21 1999.55C1604.21 2002.25 1604.66 2004.9 1605.56 2007.5C1606.46 2010.1 1607.71 2012.45 1609.31 2014.55C1611.01 2016.55 1613.01 2018.15 1615.31 2019.35C1617.71 2020.55 1620.36 2021.15 1623.26 2021.15ZM1653.41 2053.25C1653.41 2049.55 1653.96 2046.1 1655.06 2042.9C1656.26 2039.6 1657.91 2036.75 1660.01 2034.35C1662.21 2031.85 1664.86 2029.9 1667.96 2028.5C1671.06 2027.1 1674.56 2026.4 1678.46 2026.4C1682.36 2026.4 1685.86 2027.1 1688.96 2028.5C1692.06 2029.8 1694.66 2031.65 1696.76 2034.05C1698.86 2036.45 1700.46 2039.3 1701.56 2042.6C1702.66 2045.9 1703.21 2049.45 1703.21 2053.25C1703.21 2056.85 1702.61 2060.25 1701.41 2063.45C1700.31 2066.65 1698.66 2069.45 1696.46 2071.85C1694.26 2074.25 1691.61 2076.2 1688.51 2077.7C1685.51 2079.1 1682.11 2079.8 1678.31 2079.8C1674.51 2079.8 1671.06 2079.1 1667.96 2077.7C1664.96 2076.3 1662.36 2074.4 1660.16 2072C1657.96 2069.6 1656.26 2066.8 1655.06 2063.6C1653.96 2060.3 1653.41 2056.85 1653.41 2053.25ZM1659.11 2053.25C1659.11 2055.95 1659.56 2058.6 1660.46 2061.2C1661.36 2063.8 1662.61 2066.15 1664.21 2068.25C1665.91 2070.25 1667.91 2071.85 1670.21 2073.05C1672.61 2074.25 1675.26 2074.85 1678.16 2074.85C1681.16 2074.85 1683.86 2074.25 1686.26 2073.05C1688.66 2071.85 1690.66 2070.25 1692.26 2068.25C1693.96 2066.15 1695.26 2063.8 1696.16 2061.2C1697.06 2058.6 1697.51 2055.95 1697.51 2053.25C1697.51 2050.35 1697.11 2047.6 1696.31 2045C1695.51 2042.3 1694.26 2039.95 1692.56 2037.95C1690.96 2035.95 1688.96 2034.35 1686.56 2033.15C1684.16 2031.95 1681.41 2031.35 1678.31 2031.35C1675.21 2031.35 1672.46 2031.95 1670.06 2033.15C1667.66 2034.35 1665.66 2035.95 1664.06 2037.95C1662.46 2039.95 1661.21 2042.3 1660.31 2045C1659.51 2047.6 1659.11 2050.35 1659.11 2053.25ZM1853.06 1970.9V2035.1C1853.06 2037.2 1853.16 2039.65 1853.36 2042.45C1853.56 2045.25 1854.06 2048.15 1854.86 2051.15C1855.66 2054.05 1856.76 2056.95 1858.16 2059.85C1859.66 2062.65 1861.66 2065.2 1864.16 2067.5C1866.66 2069.7 1869.71 2071.5 1873.31 2072.9C1877.01 2074.2 1881.46 2074.85 1886.66 2074.85C1893.26 2074.85 1898.76 2073.95 1903.16 2072.15C1907.66 2070.25 1911.26 2067.6 1913.96 2064.2C1916.76 2060.7 1918.76 2056.5 1919.96 2051.6C1921.16 2046.7 1921.76 2041.2 1921.76 2035.1V1970.9H1928.36V2035.1C1928.36 2041.5 1927.66 2047.45 1926.26 2052.95C1924.96 2058.45 1922.71 2063.25 1919.51 2067.35C1916.31 2071.45 1912.01 2074.7 1906.61 2077.1C1901.31 2079.4 1894.66 2080.55 1886.66 2080.55C1880.36 2080.55 1874.96 2079.75 1870.46 2078.15C1865.96 2076.55 1862.21 2074.5 1859.21 2072C1856.31 2069.4 1854.01 2066.45 1852.31 2063.15C1850.61 2059.85 1849.31 2056.55 1848.41 2053.25C1847.51 2049.85 1846.96 2046.6 1846.76 2043.5C1846.56 2040.3 1846.46 2037.5 1846.46 2035.1V1970.9H1853.06ZM1990.24 1970.9H2035.84C2038.84 1970.9 2042.14 1971.25 2045.74 1971.95C2049.44 1972.65 2052.84 1974.1 2055.94 1976.3C2059.14 1978.4 2061.79 1981.45 2063.89 1985.45C2065.99 1989.35 2067.04 1994.5 2067.04 2000.9C2067.04 2010.3 2064.14 2017.55 2058.34 2022.65C2052.54 2027.75 2044.24 2030.3 2033.44 2030.3H1996.84V2078H1990.24V1970.9ZM1996.84 2024.6H2034.49C2039.29 2024.6 2043.34 2023.9 2046.64 2022.5C2050.04 2021 2052.74 2019.1 2054.74 2016.8C2056.74 2014.5 2058.19 2011.95 2059.09 2009.15C2059.99 2006.35 2060.44 2003.55 2060.44 2000.75C2060.44 1998.75 2060.14 1996.4 2059.54 1993.7C2058.94 1990.9 2057.74 1988.25 2055.94 1985.75C2054.14 1983.15 2051.59 1981 2048.29 1979.3C2045.09 1977.5 2040.79 1976.6 2035.39 1976.6H1996.84V2024.6ZM2195.06 1976.6V1970.9H2277.11V1976.6H2239.31V2078H2232.71V1976.6H2195.06ZM2418.14 2024.45C2418.14 2032.25 2416.99 2039.6 2414.69 2046.5C2412.39 2053.3 2409.04 2059.25 2404.64 2064.35C2400.34 2069.35 2395.04 2073.3 2388.74 2076.2C2382.44 2079.1 2375.29 2080.55 2367.29 2080.55C2359.29 2080.55 2352.09 2079.1 2345.69 2076.2C2339.39 2073.3 2334.04 2069.35 2329.64 2064.35C2325.34 2059.25 2322.04 2053.3 2319.74 2046.5C2317.44 2039.6 2316.29 2032.25 2316.29 2024.45C2316.29 2016.65 2317.44 2009.35 2319.74 2002.55C2322.04 1995.65 2325.34 1989.7 2329.64 1984.7C2334.04 1979.6 2339.39 1975.6 2345.69 1972.7C2352.09 1969.8 2359.29 1968.35 2367.29 1968.35C2375.29 1968.35 2382.44 1969.8 2388.74 1972.7C2395.04 1975.6 2400.34 1979.6 2404.64 1984.7C2409.04 1989.7 2412.39 1995.65 2414.69 2002.55C2416.99 2009.35 2418.14 2016.65 2418.14 2024.45ZM2322.89 2024.45C2322.89 2031.35 2323.89 2037.85 2325.89 2043.95C2327.89 2050.05 2330.79 2055.4 2334.59 2060C2338.39 2064.5 2343.04 2068.1 2348.54 2070.8C2354.04 2073.5 2360.29 2074.85 2367.29 2074.85C2374.29 2074.85 2380.49 2073.5 2385.89 2070.8C2391.39 2068.1 2396.04 2064.5 2399.84 2060C2403.64 2055.4 2406.54 2050.05 2408.54 2043.95C2410.54 2037.85 2411.54 2031.35 2411.54 2024.45C2411.54 2017.55 2410.54 2011.05 2408.54 2004.95C2406.54 1998.85 2403.64 1993.55 2399.84 1989.05C2396.04 1984.45 2391.39 1980.8 2385.89 1978.1C2380.49 1975.4 2374.29 1974.05 2367.29 1974.05C2360.29 1974.05 2354.04 1975.4 2348.54 1978.1C2343.04 1980.8 2338.39 1984.45 2334.59 1989.05C2330.79 1993.55 2327.89 1998.85 2325.89 2004.95C2323.89 2011.05 2322.89 2017.55 2322.89 2024.45ZM2574.57 2078C2575.17 2070.6 2576.17 2063.1 2577.57 2055.5C2579.07 2047.9 2581.47 2040.1 2584.77 2032.1C2588.07 2024 2592.52 2015.6 2598.12 2006.9C2603.82 1998.2 2611.12 1989.05 2620.02 1979.45H2558.97V1974.5H2625.72V1980.2C2620.52 1986 2615.47 1991.95 2610.57 1998.05C2605.77 2004.15 2601.37 2011 2597.37 2018.6C2593.47 2026.2 2590.07 2034.85 2587.17 2044.55C2584.37 2054.15 2582.37 2065.3 2581.17 2078H2574.57ZM2688.17 2046.35C2688.07 2050.65 2688.77 2054.55 2690.27 2058.05C2691.87 2061.55 2694.02 2064.55 2696.72 2067.05C2699.42 2069.55 2702.57 2071.5 2706.17 2072.9C2709.87 2074.2 2713.82 2074.85 2718.02 2074.85C2722.42 2074.85 2726.42 2074.05 2730.02 2072.45C2733.62 2070.75 2736.72 2068.5 2739.32 2065.7C2741.92 2062.9 2743.92 2059.6 2745.32 2055.8C2746.72 2052 2747.42 2048 2747.42 2043.8C2747.42 2039.6 2746.67 2035.65 2745.17 2031.95C2743.77 2028.25 2741.72 2025.05 2739.02 2022.35C2736.42 2019.65 2733.32 2017.5 2729.72 2015.9C2726.12 2014.3 2722.22 2013.5 2718.02 2013.5C2712.02 2013.5 2706.92 2014.75 2702.72 2017.25C2698.52 2019.65 2694.77 2023.25 2691.47 2028.05H2685.62L2696.42 1974.5H2748.77V1979.45H2700.92L2692.07 2020.7L2692.37 2021C2695.37 2016.8 2699.07 2013.7 2703.47 2011.7C2707.97 2009.6 2712.82 2008.55 2718.02 2008.55C2723.12 2008.55 2727.82 2009.45 2732.12 2011.25C2736.42 2012.95 2740.12 2015.35 2743.22 2018.45C2746.32 2021.55 2748.72 2025.3 2750.42 2029.7C2752.22 2034 2753.12 2038.7 2753.12 2043.8C2753.12 2048.9 2752.27 2053.65 2750.57 2058.05C2748.87 2062.45 2746.47 2066.3 2743.37 2069.6C2740.27 2072.8 2736.57 2075.3 2732.27 2077.1C2727.97 2078.9 2723.22 2079.8 2718.02 2079.8C2713.02 2079.8 2708.32 2079.05 2703.92 2077.55C2699.52 2075.95 2695.67 2073.75 2692.37 2070.95C2689.07 2068.05 2686.52 2064.55 2684.72 2060.45C2682.92 2056.25 2682.17 2051.55 2682.47 2046.35H2688.17ZM2893.72 1970.9H2899.72L2829.97 2081.6H2823.97L2893.72 1970.9ZM2834.17 2026.1C2830.37 2026.1 2826.92 2025.4 2823.82 2024C2820.82 2022.6 2818.22 2020.7 2816.02 2018.3C2813.82 2015.9 2812.12 2013.1 2810.92 2009.9C2809.82 2006.6 2809.27 2003.15 2809.27 1999.55C2809.27 1995.85 2809.82 1992.4 2810.92 1989.2C2812.12 1985.9 2813.77 1983.05 2815.87 1980.65C2818.07 1978.15 2820.72 1976.2 2823.82 1974.8C2826.92 1973.4 2830.42 1972.7 2834.32 1972.7C2838.22 1972.7 2841.72 1973.4 2844.82 1974.8C2847.92 1976.1 2850.52 1977.95 2852.62 1980.35C2854.72 1982.75 2856.32 1985.6 2857.42 1988.9C2858.52 1992.2 2859.07 1995.75 2859.07 1999.55C2859.07 2003.15 2858.47 2006.55 2857.27 2009.75C2856.17 2012.95 2854.52 2015.75 2852.32 2018.15C2850.12 2020.55 2847.47 2022.5 2844.37 2024C2841.37 2025.4 2837.97 2026.1 2834.17 2026.1ZM2834.02 2021.15C2837.02 2021.15 2839.72 2020.55 2842.12 2019.35C2844.52 2018.15 2846.52 2016.55 2848.12 2014.55C2849.82 2012.45 2851.12 2010.1 2852.02 2007.5C2852.92 2004.9 2853.37 2002.25 2853.37 1999.55C2853.37 1996.65 2852.97 1993.9 2852.17 1991.3C2851.37 1988.6 2850.12 1986.25 2848.42 1984.25C2846.82 1982.25 2844.82 1980.65 2842.42 1979.45C2840.02 1978.25 2837.27 1977.65 2834.17 1977.65C2831.07 1977.65 2828.32 1978.25 2825.92 1979.45C2823.52 1980.65 2821.52 1982.25 2819.92 1984.25C2818.32 1986.25 2817.07 1988.6 2816.17 1991.3C2815.37 1993.9 2814.97 1996.65 2814.97 1999.55C2814.97 2002.25 2815.42 2004.9 2816.32 2007.5C2817.22 2010.1 2818.47 2012.45 2820.07 2014.55C2821.77 2016.55 2823.77 2018.15 2826.07 2019.35C2828.47 2020.55 2831.12 2021.15 2834.02 2021.15ZM2864.17 2053.25C2864.17 2049.55 2864.72 2046.1 2865.82 2042.9C2867.02 2039.6 2868.67 2036.75 2870.77 2034.35C2872.97 2031.85 2875.62 2029.9 2878.72 2028.5C2881.82 2027.1 2885.32 2026.4 2889.22 2026.4C2893.12 2026.4 2896.62 2027.1 2899.72 2028.5C2902.82 2029.8 2905.42 2031.65 2907.52 2034.05C2909.62 2036.45 2911.22 2039.3 2912.32 2042.6C2913.42 2045.9 2913.97 2049.45 2913.97 2053.25C2913.97 2056.85 2913.37 2060.25 2912.17 2063.45C2911.07 2066.65 2909.42 2069.45 2907.22 2071.85C2905.02 2074.25 2902.37 2076.2 2899.27 2077.7C2896.27 2079.1 2892.87 2079.8 2889.07 2079.8C2885.27 2079.8 2881.82 2079.1 2878.72 2077.7C2875.72 2076.3 2873.12 2074.4 2870.92 2072C2868.72 2069.6 2867.02 2066.8 2865.82 2063.6C2864.72 2060.3 2864.17 2056.85 2864.17 2053.25ZM2869.87 2053.25C2869.87 2055.95 2870.32 2058.6 2871.22 2061.2C2872.12 2063.8 2873.37 2066.15 2874.97 2068.25C2876.67 2070.25 2878.67 2071.85 2880.97 2073.05C2883.37 2074.25 2886.02 2074.85 2888.92 2074.85C2891.92 2074.85 2894.62 2074.25 2897.02 2073.05C2899.42 2071.85 2901.42 2070.25 2903.02 2068.25C2904.72 2066.15 2906.02 2063.8 2906.92 2061.2C2907.82 2058.6 2908.27 2055.95 2908.27 2053.25C2908.27 2050.35 2907.87 2047.6 2907.07 2045C2906.27 2042.3 2905.02 2039.95 2903.32 2037.95C2901.72 2035.95 2899.72 2034.35 2897.32 2033.15C2894.92 2031.95 2892.17 2031.35 2889.07 2031.35C2885.97 2031.35 2883.22 2031.95 2880.82 2033.15C2878.42 2034.35 2876.42 2035.95 2874.82 2037.95C2873.22 2039.95 2871.97 2042.3 2871.07 2045C2870.27 2047.6 2869.87 2050.35 2869.87 2053.25ZM562.305 2205.45C562.305 2213.25 561.155 2220.6 558.855 2227.5C556.555 2234.3 553.205 2240.25 548.805 2245.35C544.505 2250.35 539.205 2254.3 532.905 2257.2C526.605 2260.1 519.455 2261.55 511.455 2261.55C503.455 2261.55 496.255 2260.1 489.855 2257.2C483.555 2254.3 478.205 2250.35 473.805 2245.35C469.505 2240.25 466.205 2234.3 463.905 2227.5C461.605 2220.6 460.455 2213.25 460.455 2205.45C460.455 2197.65 461.605 2190.35 463.905 2183.55C466.205 2176.65 469.505 2170.7 473.805 2165.7C478.205 2160.6 483.555 2156.6 489.855 2153.7C496.255 2150.8 503.455 2149.35 511.455 2149.35C519.455 2149.35 526.605 2150.8 532.905 2153.7C539.205 2156.6 544.505 2160.6 548.805 2165.7C553.205 2170.7 556.555 2176.65 558.855 2183.55C561.155 2190.35 562.305 2197.65 562.305 2205.45ZM467.055 2205.45C467.055 2212.35 468.055 2218.85 470.055 2224.95C472.055 2231.05 474.955 2236.4 478.755 2241C482.555 2245.5 487.205 2249.1 492.705 2251.8C498.205 2254.5 504.455 2255.85 511.455 2255.85C518.455 2255.85 524.655 2254.5 530.055 2251.8C535.555 2249.1 540.205 2245.5 544.005 2241C547.805 2236.4 550.705 2231.05 552.705 2224.95C554.705 2218.85 555.705 2212.35 555.705 2205.45C555.705 2198.55 554.705 2192.05 552.705 2185.95C550.705 2179.85 547.805 2174.55 544.005 2170.05C540.205 2165.45 535.555 2161.8 530.055 2159.1C524.655 2156.4 518.455 2155.05 511.455 2155.05C504.455 2155.05 498.205 2156.4 492.705 2159.1C487.205 2161.8 482.555 2165.45 478.755 2170.05C474.955 2174.55 472.055 2179.85 470.055 2185.95C468.055 2192.05 467.055 2198.55 467.055 2205.45ZM619.436 2151.9H627.686L695.336 2250.15H695.636V2151.9H702.236V2259H694.436L626.336 2160H626.036V2259H619.436V2151.9ZM918.745 2182.5C918.545 2177.9 917.545 2173.9 915.745 2170.5C914.045 2167.1 911.695 2164.25 908.695 2161.95C905.695 2159.65 902.095 2157.95 897.895 2156.85C893.795 2155.65 889.295 2155.05 884.395 2155.05C881.395 2155.05 878.145 2155.4 874.645 2156.1C871.245 2156.8 868.045 2158.05 865.045 2159.85C862.145 2161.55 859.745 2163.9 857.845 2166.9C855.945 2169.8 854.995 2173.45 854.995 2177.85C854.995 2182.15 856.045 2185.65 858.145 2188.35C860.245 2191.05 862.995 2193.25 866.395 2194.95C869.795 2196.55 873.695 2197.85 878.095 2198.85C882.495 2199.85 886.945 2200.8 891.445 2201.7C896.045 2202.6 900.495 2203.7 904.795 2205C909.195 2206.2 913.095 2207.9 916.495 2210.1C919.995 2212.2 922.795 2215 924.895 2218.5C926.995 2221.9 928.045 2226.2 928.045 2231.4C928.045 2237 926.845 2241.7 924.445 2245.5C922.045 2249.3 918.995 2252.4 915.295 2254.8C911.695 2257.2 907.645 2258.9 903.145 2259.9C898.745 2261 894.495 2261.55 890.395 2261.55C884.095 2261.55 878.195 2260.85 872.695 2259.45C867.195 2258.15 862.395 2256 858.295 2253C854.195 2249.9 850.945 2245.95 848.545 2241.15C846.245 2236.35 845.145 2230.5 845.245 2223.6H851.845C851.545 2229.5 852.395 2234.5 854.395 2238.6C856.395 2242.6 859.145 2245.9 862.645 2248.5C866.245 2251.1 870.445 2253 875.245 2254.2C880.045 2255.3 885.095 2255.85 890.395 2255.85C893.595 2255.85 896.995 2255.45 900.595 2254.65C904.295 2253.85 907.645 2252.5 910.645 2250.6C913.745 2248.7 916.295 2246.2 918.295 2243.1C920.395 2240 921.445 2236.1 921.445 2231.4C921.445 2226.9 920.395 2223.25 918.295 2220.45C916.195 2217.55 913.395 2215.25 909.895 2213.55C906.495 2211.75 902.595 2210.35 898.195 2209.35C893.895 2208.25 889.445 2207.25 884.845 2206.35C880.345 2205.45 875.895 2204.4 871.495 2203.2C867.095 2202 863.195 2200.4 859.795 2198.4C856.395 2196.3 853.645 2193.65 851.545 2190.45C849.445 2187.15 848.395 2182.95 848.395 2177.85C848.395 2172.75 849.445 2168.4 851.545 2164.8C853.745 2161.1 856.545 2158.15 859.945 2155.95C863.445 2153.65 867.345 2152 871.645 2151C875.945 2149.9 880.195 2149.35 884.395 2149.35C889.995 2149.35 895.195 2150 899.995 2151.3C904.895 2152.5 909.145 2154.45 912.745 2157.15C916.445 2159.75 919.395 2163.15 921.595 2167.35C923.795 2171.55 925.045 2176.6 925.345 2182.5H918.745ZM986.327 2151.9H1058.33V2157.6H992.927V2200.5H1054.43V2206.2H992.927V2253.3H1059.08V2259H986.327V2151.9ZM1113.26 2151.9H1119.86V2253.3H1180.61V2259H1113.26V2151.9ZM1231.26 2151.9H1303.26V2157.6H1237.86V2200.5H1299.36V2206.2H1237.86V2253.3H1304.01V2259H1231.26V2151.9ZM1354.15 2205.45C1354.15 2197.65 1355.3 2190.35 1357.6 2183.55C1359.9 2176.65 1363.2 2170.7 1367.5 2165.7C1371.9 2160.6 1377.25 2156.6 1383.55 2153.7C1389.95 2150.8 1397.15 2149.35 1405.15 2149.35C1411.45 2149.35 1416.9 2150.2 1421.5 2151.9C1426.1 2153.5 1429.95 2155.55 1433.05 2158.05C1436.25 2160.45 1438.85 2163.1 1440.85 2166C1442.85 2168.9 1444.35 2171.65 1445.35 2174.25C1446.45 2176.75 1447.2 2178.95 1447.6 2180.85C1448 2182.65 1448.2 2183.65 1448.2 2183.85H1441.6C1440.9 2179.35 1439.45 2175.35 1437.25 2171.85C1435.05 2168.25 1432.3 2165.2 1429 2162.7C1425.7 2160.2 1422 2158.3 1417.9 2157C1413.9 2155.7 1409.65 2155.05 1405.15 2155.05C1398.15 2155.05 1391.9 2156.4 1386.4 2159.1C1380.9 2161.8 1376.25 2165.45 1372.45 2170.05C1368.65 2174.55 1365.75 2179.85 1363.75 2185.95C1361.75 2192.05 1360.75 2198.55 1360.75 2205.45C1360.75 2212.35 1361.75 2218.85 1363.75 2224.95C1365.75 2231.05 1368.65 2236.4 1372.45 2241C1376.25 2245.5 1380.9 2249.1 1386.4 2251.8C1391.9 2254.5 1398.15 2255.85 1405.15 2255.85C1410.35 2255.85 1415.2 2254.8 1419.7 2252.7C1424.3 2250.5 1428.3 2247.65 1431.7 2244.15C1435.1 2240.55 1437.8 2236.45 1439.8 2231.85C1441.9 2227.15 1443.1 2222.3 1443.4 2217.3H1450C1449.4 2223.7 1447.8 2229.6 1445.2 2235C1442.7 2240.4 1439.45 2245.1 1435.45 2249.1C1431.55 2253 1427 2256.05 1421.8 2258.25C1416.6 2260.45 1411.05 2261.55 1405.15 2261.55C1397.15 2261.55 1389.95 2260.1 1383.55 2257.2C1377.25 2254.3 1371.9 2250.35 1367.5 2245.35C1363.2 2240.25 1359.9 2234.3 1357.6 2227.5C1355.3 2220.6 1354.15 2213.25 1354.15 2205.45ZM1491.6 2157.6V2151.9H1573.65V2157.6H1535.85V2259H1529.25V2157.6H1491.6ZM1623.93 2151.9H1695.93V2157.6H1630.53V2200.5H1692.03V2206.2H1630.53V2253.3H1696.68V2259H1623.93V2151.9ZM1750.87 2151.9H1785.97C1795.57 2151.9 1803.52 2153.4 1809.82 2156.4C1816.22 2159.4 1821.32 2163.4 1825.12 2168.4C1828.92 2173.4 1831.57 2179.1 1833.07 2185.5C1834.67 2191.9 1835.47 2198.5 1835.47 2205.3C1835.47 2212.9 1834.47 2220 1832.47 2226.6C1830.57 2233.1 1827.57 2238.75 1823.47 2243.55C1819.37 2248.35 1814.17 2252.15 1807.87 2254.95C1801.67 2257.65 1794.27 2259 1785.67 2259H1750.87V2151.9ZM1786.27 2253.3C1791.27 2253.3 1796.27 2252.55 1801.27 2251.05C1806.37 2249.45 1810.97 2246.85 1815.07 2243.25C1819.17 2239.55 1822.47 2234.65 1824.97 2228.55C1827.57 2222.35 1828.87 2214.6 1828.87 2205.3C1828.87 2198 1828.12 2191.75 1826.62 2186.55C1825.22 2181.35 1823.32 2177 1820.92 2173.5C1818.62 2169.9 1815.92 2167.1 1812.82 2165.1C1809.82 2163 1806.67 2161.4 1803.37 2160.3C1800.17 2159.2 1796.92 2158.5 1793.62 2158.2C1790.42 2157.8 1787.52 2157.6 1784.92 2157.6H1757.47V2253.3H1786.27ZM1978.67 2151.9H1985.27V2259H1978.67V2151.9ZM2035.61 2157.6V2151.9H2117.66V2157.6H2079.86V2259H2073.26V2157.6H2035.61ZM2167.94 2151.9H2239.94V2157.6H2174.54V2200.5H2236.04V2206.2H2174.54V2253.3H2240.69V2259H2167.94V2151.9ZM2294.87 2151.9H2304.32L2346.17 2251.65H2346.47L2387.87 2151.9H2397.32V2259H2390.72V2160H2390.42L2349.62 2259H2343.02L2301.77 2160H2301.47V2259H2294.87V2151.9ZM2529.06 2182.5C2528.86 2177.9 2527.86 2173.9 2526.06 2170.5C2524.36 2167.1 2522.01 2164.25 2519.01 2161.95C2516.01 2159.65 2512.41 2157.95 2508.21 2156.85C2504.11 2155.65 2499.61 2155.05 2494.71 2155.05C2491.71 2155.05 2488.46 2155.4 2484.96 2156.1C2481.56 2156.8 2478.36 2158.05 2475.36 2159.85C2472.46 2161.55 2470.06 2163.9 2468.16 2166.9C2466.26 2169.8 2465.31 2173.45 2465.31 2177.85C2465.31 2182.15 2466.36 2185.65 2468.46 2188.35C2470.56 2191.05 2473.31 2193.25 2476.71 2194.95C2480.11 2196.55 2484.01 2197.85 2488.41 2198.85C2492.81 2199.85 2497.26 2200.8 2501.76 2201.7C2506.36 2202.6 2510.81 2203.7 2515.11 2205C2519.51 2206.2 2523.41 2207.9 2526.81 2210.1C2530.31 2212.2 2533.11 2215 2535.21 2218.5C2537.31 2221.9 2538.36 2226.2 2538.36 2231.4C2538.36 2237 2537.16 2241.7 2534.76 2245.5C2532.36 2249.3 2529.31 2252.4 2525.61 2254.8C2522.01 2257.2 2517.96 2258.9 2513.46 2259.9C2509.06 2261 2504.81 2261.55 2500.71 2261.55C2494.41 2261.55 2488.51 2260.85 2483.01 2259.45C2477.51 2258.15 2472.71 2256 2468.61 2253C2464.51 2249.9 2461.26 2245.95 2458.86 2241.15C2456.56 2236.35 2455.46 2230.5 2455.56 2223.6H2462.16C2461.86 2229.5 2462.71 2234.5 2464.71 2238.6C2466.71 2242.6 2469.46 2245.9 2472.96 2248.5C2476.56 2251.1 2480.76 2253 2485.56 2254.2C2490.36 2255.3 2495.41 2255.85 2500.71 2255.85C2503.91 2255.85 2507.31 2255.45 2510.91 2254.65C2514.61 2253.85 2517.96 2252.5 2520.96 2250.6C2524.06 2248.7 2526.61 2246.2 2528.61 2243.1C2530.71 2240 2531.76 2236.1 2531.76 2231.4C2531.76 2226.9 2530.71 2223.25 2528.61 2220.45C2526.51 2217.55 2523.71 2215.25 2520.21 2213.55C2516.81 2211.75 2512.91 2210.35 2508.51 2209.35C2504.21 2208.25 2499.76 2207.25 2495.16 2206.35C2490.66 2205.45 2486.21 2204.4 2481.81 2203.2C2477.41 2202 2473.51 2200.4 2470.11 2198.4C2466.71 2196.3 2463.96 2193.65 2461.86 2190.45C2459.76 2187.15 2458.71 2182.95 2458.71 2177.85C2458.71 2172.75 2459.76 2168.4 2461.86 2164.8C2464.06 2161.1 2466.86 2158.15 2470.26 2155.95C2473.76 2153.65 2477.66 2152 2481.96 2151C2486.26 2149.9 2490.51 2149.35 2494.71 2149.35C2500.31 2149.35 2505.51 2150 2510.31 2151.3C2515.21 2152.5 2519.46 2154.45 2523.06 2157.15C2526.76 2159.75 2529.71 2163.15 2531.91 2167.35C2534.11 2171.55 2535.36 2176.6 2535.66 2182.5H2529.06Z" fill="#23F444"/>
<path d="M508.451 2390.82C534.803 2390.82 551.273 2410.46 551.273 2436.81C551.273 2462.19 535.047 2482.07 508.451 2482.07C481.855 2482.07 465.629 2462.19 465.629 2436.81C465.629 2410.95 481.733 2390.82 508.451 2390.82ZM484.783 2436.81C484.783 2453.04 492.469 2465.97 508.451 2465.97C524.677 2465.97 532.119 2452.67 532.119 2436.81C532.119 2420.1 524.677 2406.92 508.329 2406.92C492.347 2406.92 484.783 2419.98 484.783 2436.81ZM597.366 2392.89H616.398L652.754 2451.33H652.998V2392.89H670.932V2480H651.778L615.544 2421.68H615.3V2480H597.366V2392.89ZM720.794 2392.89H739.948V2463.9H782.404V2480H720.794V2392.89ZM826.112 2392.89H845.266V2480H826.112V2392.89ZM895.093 2392.89H914.125L950.481 2451.33H950.725V2392.89H968.659V2480H949.505L913.271 2421.68H913.027V2480H895.093V2392.89ZM1018.52 2392.89H1083.67V2409H1037.67V2427.66H1079.89V2442.55H1037.67V2463.9H1084.64V2480H1018.52V2392.89ZM1221.37 2392.89H1241.02L1273.59 2480H1253.7L1247.12 2460.6H1214.54L1207.71 2480H1188.31L1221.37 2392.89ZM1231.13 2414.36H1230.89L1219.54 2446.33H1242.11L1231.13 2414.36ZM1314.1 2392.89H1333.13L1369.49 2451.33H1369.73V2392.89H1387.67V2480H1368.51L1332.28 2421.68H1332.04V2480H1314.1V2392.89ZM1437.53 2392.89H1474.86C1499.02 2392.89 1514.63 2408.51 1514.63 2435.96C1514.63 2463.41 1499.75 2480 1475.35 2480H1437.53V2392.89ZM1456.68 2463.9H1473.64C1485.6 2463.9 1495.48 2456.45 1495.48 2437.67C1495.48 2416.93 1486.33 2409 1470.35 2409H1456.68V2463.9ZM1627.91 2392.89H1647.07V2480H1627.91V2392.89ZM1696.89 2392.89H1715.93L1752.28 2451.33H1752.53V2392.89H1770.46V2480H1751.31L1715.07 2421.68H1714.83V2480H1696.89V2392.89ZM1917.29 2390.82C1935.95 2390.82 1952.18 2399.11 1952.18 2418.88H1933.64C1933.03 2410.09 1927.9 2405.7 1916.56 2405.7C1909.48 2405.7 1903.26 2408.75 1903.26 2415.58C1903.26 2421.93 1906.92 2423.15 1926.44 2428.03C1939.37 2431.32 1955.11 2435.71 1955.11 2454.14C1955.11 2470.61 1942.05 2482.07 1918.87 2482.07C1900.45 2482.07 1881.79 2473.29 1881.79 2451.7V2451.09H1900.33C1900.33 2463.41 1910.46 2467.19 1919.48 2467.19C1928.27 2467.19 1936.56 2464.26 1936.56 2456.33C1936.56 2450.84 1932.29 2447.43 1921.56 2444.74C1915.09 2443.03 1909.48 2441.81 1903.87 2439.98C1890.69 2435.59 1884.71 2428.15 1884.71 2417.05C1884.71 2399.48 1901.31 2390.82 1917.29 2390.82ZM1992.67 2392.89H2064.04V2409H2037.93V2480H2018.78V2409H1992.67V2392.89ZM2146.13 2390.82C2172.48 2390.82 2188.95 2410.46 2188.95 2436.81C2188.95 2462.19 2172.72 2482.07 2146.13 2482.07C2119.53 2482.07 2103.3 2462.19 2103.3 2436.81C2103.3 2410.95 2119.41 2390.82 2146.13 2390.82ZM2122.46 2436.81C2122.46 2453.04 2130.14 2465.97 2146.13 2465.97C2162.35 2465.97 2169.79 2452.67 2169.79 2436.81C2169.79 2420.1 2162.35 2406.92 2146 2406.92C2130.02 2406.92 2122.46 2419.98 2122.46 2436.81ZM2235.04 2392.89H2282.01C2297.38 2392.89 2307.51 2403.51 2307.51 2416.93C2307.51 2427.91 2302.87 2435.1 2293.72 2438.76V2439.01C2305.92 2442.42 2306.29 2455.84 2306.66 2464.02C2307.02 2472.31 2307.88 2476.95 2310.07 2480H2290.92C2289.45 2476.34 2288.97 2471.09 2288.48 2464.87C2287.5 2452.67 2285.55 2445.96 2273.47 2445.96H2254.2V2480H2235.04V2392.89ZM2254.2 2432.3H2275.3C2283.35 2432.3 2288.36 2429 2288.36 2419.85C2288.36 2411.19 2283.6 2407.78 2275.18 2407.78H2254.2V2432.3ZM2356.09 2392.89H2421.23V2409H2375.24V2427.66H2417.45V2442.55H2375.24V2463.9H2422.21V2480H2356.09V2392.89ZM2498.21 2390.82C2516.87 2390.82 2533.1 2399.11 2533.1 2418.88H2514.56C2513.95 2410.09 2508.82 2405.7 2497.48 2405.7C2490.4 2405.7 2484.18 2408.75 2484.18 2415.58C2484.18 2421.93 2487.84 2423.15 2507.36 2428.03C2520.29 2431.32 2536.03 2435.71 2536.03 2454.14C2536.03 2470.61 2522.97 2482.07 2499.79 2482.07C2481.37 2482.07 2462.71 2473.29 2462.71 2451.7V2451.09H2481.25C2481.25 2463.41 2491.38 2467.19 2500.4 2467.19C2509.19 2467.19 2517.48 2464.26 2517.48 2456.33C2517.48 2450.84 2513.21 2447.43 2502.48 2444.74C2496.01 2443.03 2490.4 2441.81 2484.79 2439.98C2471.61 2435.59 2465.63 2428.15 2465.63 2417.05C2465.63 2399.48 2482.23 2390.82 2498.21 2390.82Z" fill="white"/>
</svg>
